<svg
    width="35px"
    height="35px"
    id="Capa_1"
    data-name="Capa 1"
    xmlns="http://www.w3.org/2000/svg"
    viewBox="0 0 167 168"
>
    <g id="chat-dots">
    <path
        id="Trazado_480"
        data-name="Trazado 480"
        d="M55.17,79.6a9.44,9.44,0,1,1-9.44-9.44,9.44,9.44,0,0,1,9.44,9.44ZM93,79.6a9.44,9.44,0,1,1-9.45-9.44A9.44,9.44,0,0,1,93,79.6h0ZM121.28,89a9.44,9.44,0,1,0-9.44-9.44h0a9.44,9.44,0,0,0,9.43,9.45Z"
    />
    <path
        id="Trazado_481"
        data-name="Trazado 481"
        d="M28.39,153.3l.19,0a128.57,128.57,0,0,0,32.75-10.44,85.49,85.49,0,0,0,22.17,2.89c41.72,0,75.55-29.59,75.55-66.1S125.22,13.5,83.5,13.5,8,43.1,8,79.61a61.33,61.33,0,0,0,18.61,43.44,98.48,98.48,0,0,1-4.95,21.89l0,.1c-.71,2-1.47,4-2.31,6a2.47,2.47,0,0,0,2.58,3.42q3.28-.54,6.55-1.18ZM36,123.94a9.45,9.45,0,0,0-2.71-7.56A51.9,51.9,0,0,1,17.39,79.61C17.39,49.46,45.76,23,83.5,23s66.11,26.51,66.11,56.66-28.37,56.66-66.11,56.66a76.27,76.27,0,0,1-19.71-2.57,9.48,9.48,0,0,0-6.72.7,111.53,111.53,0,0,1-24.87,8.43A103.74,103.74,0,0,0,36,123.94Z"
    />
    </g>
</svg>